<svg width="12" height="10" viewBox="0 0 12 10" fill="none" xmlns="http://www.w3.org/2000/svg">
<path fill-rule="evenodd" clip-rule="evenodd" d="M11.7527 2.02216C12.1164 1.60653 12.0743 0.974765 11.6587 0.611083C11.243 0.247401 10.6113 0.289519 10.2476 0.705155L4.58783 7.17346L1.70728 4.29291C1.31675 3.90238 0.683589 3.90238 0.293065 4.29291C-0.0974593 4.68343 -0.0974593 5.3166 0.293065 5.70712L3.92195 9.33601C3.93363 9.34791 3.94567 9.35958 3.95805 9.37101C4.03697 9.444 4.12479 9.50193 4.21784 9.5448C4.4937 9.67209 4.81297 9.66572 5.08214 9.53191C5.18816 9.47921 5.28641 9.40673 5.37116 9.31487C5.37927 9.30611 5.38718 9.29724 5.39491 9.28826L11.7527 2.02216Z" fill="white"/>
</svg>
